<svg width="135" height="51" viewBox="0 0 135 51" fill="none" xmlns="http://www.w3.org/2000/svg">
<g clip-path="url(#clip0_1745_14)">
<path d="M0 44.0159L3.16354 37.6954C5.79913 39.7824 10.376 42.7796 14.1293 42.7796C18.4195 42.7796 19.5298 41.1587 19.5298 39.0733C19.5298 32.7158 1.80703 36.6444 2.03435 23.94C2.10683 19.8738 5.76948 14.3037 14.663 14.3037C18.5949 14.3037 24.4525 16.1873 27.3566 18.1747L24.4583 24.4342C21.5534 22.6387 19.2695 21.7369 16.4074 21.1735C12.1946 20.3441 9.97819 21.8612 9.97819 23.9961C9.97819 30.2556 27.1557 26.6613 27.5329 39.0766C27.7059 44.7514 23.0219 49.0919 14.0848 49.0919C9.1241 49.0877 2.77067 46.3451 0 44.0159Z" fill="white"/>
<path d="M54.5633 37.875H36.2888C36.9617 41.1019 39.5215 43.0786 43.2031 43.0786C45.7621 43.0786 47.6037 42.26 49.265 40.574L53.1763 44.3964C50.9311 47.1424 47.3789 49.0911 43.0235 49.0911C34.6761 49.0969 29.2402 43.4616 29.2402 35.7558C29.2402 28.0014 34.7626 22.4131 42.1266 22.4131C49.2205 22.4131 54.6984 27.5196 54.6984 35.8513C54.6976 36.4304 54.6078 37.249 54.5633 37.875ZM36.1965 33.4925H48.1012C47.607 30.2169 45.3173 28.0978 42.1711 28.0978C38.9828 28.0978 36.6924 30.1683 36.199 33.4925H36.1965Z" fill="white"/>
<path d="M81.2684 37.8697H62.9939C63.6643 41.0966 66.2274 43.0733 69.909 43.0733C72.468 43.0733 74.3088 42.2546 75.9701 40.5687L79.8823 44.3911C77.6371 47.1371 74.0848 49.0858 69.7295 49.0858C61.3779 49.0858 55.9453 43.4505 55.9453 35.7431C55.9453 27.9887 61.4677 22.4004 68.8309 22.4004C75.9256 22.4004 81.4035 27.5068 81.4035 35.8386C81.4035 36.425 81.3137 37.2437 81.2684 37.8697ZM62.9016 33.4872H74.803C74.3088 30.2116 72.0191 28.0924 68.8729 28.0924C65.6879 28.0924 63.3983 30.163 62.9041 33.4872H62.9016Z" fill="white"/>
<path d="M113.146 45.3988L115.506 40.4068C117.596 41.9 121.085 43.413 123.958 43.413C127.088 43.413 127.351 42.951 127.351 41.5055C127.351 37.7045 114.49 39.5758 114.306 30.6955C114.205 25.7842 118.125 22.4131 124.96 22.4131C128.181 22.4131 131.989 23.9862 134.208 25.4317L131.67 30.6065C129.364 29.1611 127.245 28.2394 125.135 27.9157C122.676 27.5377 121.117 28.4791 121.117 29.8274C121.117 34.2585 134.565 31.3848 134.386 41.139C134.299 45.9547 130.218 49.1141 123.21 49.1141C119.249 49.1141 115.322 46.9876 113.146 45.3988Z" fill="white"/>
<path d="M115.133 8.4558L107.612 0.934474C107.01 0.335961 106.195 0 105.347 0C104.498 0 103.684 0.335961 103.082 0.934474L95.5603 8.4558C95.2626 8.75307 95.0264 9.10612 94.8652 9.49477C94.7041 9.88341 94.6211 10.3 94.6211 10.7207C94.6211 11.1415 94.7041 11.5581 94.8652 11.9467C95.0264 12.3354 95.2626 12.6884 95.5603 12.9857C95.8576 13.2834 96.2107 13.5197 96.5993 13.6808C96.9879 13.842 97.4046 13.9249 97.8253 13.9249C98.246 13.9249 98.6626 13.842 99.0513 13.6808C99.4399 13.5197 99.793 13.2834 100.09 12.9857L105.343 7.7203L110.604 12.9816C110.901 13.2793 111.254 13.5155 111.643 13.6767C112.031 13.8379 112.448 13.9208 112.869 13.9208C113.29 13.9208 113.706 13.8379 114.095 13.6767C114.483 13.5155 114.836 13.2793 115.134 12.9816C115.734 12.3813 116.071 11.5672 116.07 10.7185C116.07 9.86981 115.733 9.05589 115.133 8.4558Z" fill="white"/>
<path d="M108.551 21.1205V17.4488V12.7508L105.344 9.55273L102.142 12.7533V18.5763C102.142 18.76 102.091 20.0761 100.989 20.5242L90.3792 24.8375L90.3883 24.8598C88.3326 25.8347 86.5763 27.3435 85.3025 29.2286C84.0287 31.1137 83.2841 33.306 83.1464 35.577C83.0087 37.8479 83.4829 40.1142 84.5195 42.1394C85.5561 44.1646 87.1172 45.8746 89.0399 47.0908C90.9627 48.3071 93.1765 48.9851 95.4506 49.0542C97.7247 49.1233 99.9756 48.5808 101.969 47.4835C103.962 46.3861 105.624 44.7741 106.781 42.8155C107.939 40.8569 108.55 38.6236 108.55 36.3485C108.55 36.2356 108.55 36.1236 108.55 36.0116V26.9938L102.148 29.5956V36.5239C102.116 37.6508 101.783 38.7487 101.183 39.7032C100.584 40.6578 99.7391 41.4342 98.7375 41.9517C97.7359 42.4692 96.614 42.7089 95.4884 42.6458C94.3628 42.5827 93.2747 42.2191 92.3372 41.5929C91.3997 40.9668 90.6472 40.1008 90.1578 39.0852C89.6685 38.0696 89.4602 36.9414 89.5547 35.818C89.6492 34.6946 90.043 33.617 90.6951 32.6974C91.3472 31.7778 92.2338 31.0497 93.2627 30.5889V30.5773L106.072 25.3704C106.547 25.1488 108.551 24.1951 108.551 21.1205Z" fill="white"/>
<path d="M106.586 27.7878C106.586 27.7878 107.909 27.357 108.549 26.0508V28.4113L106.586 27.7878Z" fill="white"/>
<path d="M110.478 24.8745V37.6159C110.478 44.7814 103.994 50.597 95.9951 50.597C95.3675 50.5972 94.7405 50.5609 94.1172 50.4883C95.3516 50.7937 96.6186 50.9475 97.8902 50.9463C105.68 50.9463 111.995 45.2863 111.995 38.3045V22.8047C111.543 23.8433 111.03 24.4627 110.478 24.8745Z" fill="white"/>
<path d="M108.547 36.0067V28.4113V26.0508C107.838 27.231 107.213 27.5111 106.807 27.698L102.141 29.5923V36.3461H108.547C108.551 36.2308 108.549 36.1187 108.547 36.0067Z" fill="url(#paint0_linear_1745_14)"/>
<path d="M110.474 14.6514V19.3708C110.467 19.9786 110.43 22.0064 109.65 23.512C109.65 23.512 111.944 21.4134 111.989 18.4977V15.9445L110.474 14.6514Z" fill="white"/>
</g>
<defs>
<linearGradient id="paint0_linear_1745_14" x1="107.376" y1="36.7702" x2="104.069" y2="27.6815" gradientUnits="userSpaceOnUse">
<stop offset="0.06" stop-color="white"/>
<stop offset="0.94" stop-color="#44FFBC"/>
</linearGradient>
<clipPath id="clip0_1745_14">
<rect width="135" height="51" fill="white"/>
</clipPath>
</defs>
</svg>
